<svg xmlns="http://www.w3.org/2000/svg" x="0px" y="0px" width="48" height="48" viewBox="0,0,256,256"
style="fill:#000000;"><title>logo</title>
<defs><radialGradient cx="28.167" cy="14" r="29.043" gradientUnits="userSpaceOnUse" id="color-1_Bri4HBrgCsPa_gr1"><stop offset="0" stop-color="#ffdc51"></stop><stop offset="0.511" stop-color="#ff543f"></stop><stop offset="0.558" stop-color="#fc5245"></stop><stop offset="0.644" stop-color="#e64771"></stop><stop offset="0.761" stop-color="#d53e91"></stop><stop offset="0.863" stop-color="#cc39a4"></stop><stop offset="0.943" stop-color="#c837ab"></stop></radialGradient><linearGradient x1="30.102" y1="7.282" x2="21.167" y2="30.995" gradientUnits="userSpaceOnUse" id="color-2_Bri4HBrgCsPa_gr2"><stop offset="0" stop-color="#ffdc51"></stop><stop offset="0.328" stop-color="#ff543f"></stop><stop offset="0.348" stop-color="#fc5245"></stop><stop offset="0.504" stop-color="#e64771"></stop><stop offset="0.643" stop-color="#d53e91"></stop><stop offset="0.761" stop-color="#cc39a4"></stop><stop offset="0.841" stop-color="#c837ab"></stop></linearGradient><linearGradient x1="32.652" y1="34.63834" x2="32.851" y2="20.72564" gradientUnits="userSpaceOnUse" id="color-3_Bri4HBrgCsPa_gr3"><stop offset="0" stop-color="#29abe2"></stop><stop offset="0.999" stop-color="#29abe2" stop-opacity="0"></stop></linearGradient><radialGradient cx="19.00911" cy="42.13035" r="21.92922" gradientUnits="userSpaceOnUse" id="color-4_Bri4HBrgCsPa_gr4"><stop offset="0" stop-color="#29abe2"></stop><stop offset="0.613" stop-color="#aa00ff"></stop><stop offset="0.989" stop-color="#29abe2" stop-opacity="0"></stop></radialGradient><radialGradient cx="24.83232" cy="38.38055" r="6.17878" fx="23.40719" fy="40.0144" gradientUnits="userSpaceOnUse" id="color-5_Bri4HBrgCsPa_gr5"><stop offset="0.129" stop-color="#29abe2"></stop><stop offset="0.794" stop-color="#29abe2" stop-opacity="0"></stop></radialGradient></defs><g fill="none" fill-rule="nonzero" stroke="none" stroke-width="1" stroke-linecap="butt" stroke-linejoin="miter" stroke-miterlimit="10" stroke-dasharray="" stroke-dashoffset="0" font-family="none" font-weight="none" font-size="none" text-anchor="none" style="mix-blend-mode: normal"><g transform="scale(5.33333,5.33333)"><path d="M35,42h-22c-3.85,0 -7,-3.15 -7,-7v-22c0,-3.85 3.15,-7 7,-7h22c3.85,0 7,3.15 7,7v22c0,3.85 -3.15,7 -7,7z" fill="url(#color-1_Bri4HBrgCsPa_gr1)"></path><rect x="17.004" y="12.339" width="14.77" height="20.212" fill="url(#color-2_Bri4HBrgCsPa_gr2)"></rect><path d="M23.502,20.33h18.498v14.67c0,3.866 -3.134,7 -7,7h-11.498z" fill="url(#color-3_Bri4HBrgCsPa_gr3)"></path><path d="M6,21.064h18.121v20.936h-11.121c-3.866,0 -7,-3.134 -7,-7z" fill="url(#color-4_Bri4HBrgCsPa_gr4)"></path><rect x="14.909" y="29.691" width="19.185" height="12.309" fill="url(#color-5_Bri4HBrgCsPa_gr5)"></rect><path d="M34,9h-20c-2.757,0 -5,2.243 -5,5v20c0,2.757 2.243,5 5,5h20c2.757,0 5,-2.243 5,-5v-20c0,-2.757 -2.243,-5 -5,-5zM27.49,28.089l1.715,-0.245c0.295,-0.042 0.565,-0.155 0.795,-0.319v1.862c0,0.71 -0.53,1.322 -1.233,1.422l-0.87,0.125c-0.871,0.125 -1.64,-0.561 -1.64,-1.422c0,-0.711 0.53,-1.323 1.233,-1.423zM28.566,17.817l-7.383,1.583c-0.247,0.053 -0.474,0.156 -0.671,0.296v-2.976l9.488,-2.033v3.424c-0.395,-0.279 -0.918,-0.402 -1.434,-0.294zM19.743,29.577v1.861c0,0.71 -0.53,1.322 -1.233,1.422l-0.87,0.125c-0.455,0.061 -0.895,-0.085 -1.215,-0.403c-0.275,-0.271 -0.425,-0.633 -0.425,-1.019c0,-0.71 0.53,-1.322 1.233,-1.422l1.716,-0.245c0.294,-0.042 0.565,-0.155 0.794,-0.319z" fill="#000000" opacity="0.05"></path><path d="M34,9.5h-20c-2.481,0 -4.5,2.019 -4.5,4.5v20c0,2.481 2.019,4.5 4.5,4.5h20c2.481,0 4.5,-2.019 4.5,-4.5v-20c0,-2.481 -2.019,-4.5 -4.5,-4.5zM27.419,27.594l1.716,-0.245c0.647,-0.092 1.135,-0.654 1.135,-1.308v-6.444c0,-0.821 -0.788,-1.471 -1.598,-1.291l-7.384,1.583c-0.605,0.129 -1.045,0.672 -1.045,1.291v10.259c0,0.958 -0.715,1.782 -1.663,1.917l-0.869,0.125c-0.616,0.088 -1.207,-0.115 -1.638,-0.542c-0.37,-0.366 -0.573,-0.854 -0.573,-1.375c0,-0.958 0.715,-1.782 1.662,-1.917l1.717,-0.245c0.646,-0.092 1.134,-0.654 1.134,-1.308v-11.52c0,-0.15 0.106,-0.282 0.253,-0.313l9.847,-2.11c0.023,-0.005 0.047,-0.007 0.069,-0.007c0.176,0 0.318,0.144 0.318,0.321v14.923c0,0.958 -0.715,1.782 -1.663,1.917l-0.869,0.125c-1.178,0.174 -2.211,-0.757 -2.211,-1.917c0,-0.959 0.715,-1.784 1.662,-1.919z" fill="#000000" opacity="0.07"></path><path d="M34,10h-20c-2.2,0 -4,1.8 -4,4v20c0,2.2 1.8,4 4,4h20c2.2,0 4,-1.8 4,-4v-20c0,-2.2 -1.8,-4 -4,-4zM31,29.387c0,1.213 -0.892,2.241 -2.092,2.412l-0.87,0.124c-1.468,0.21 -2.781,-0.929 -2.781,-2.412c0,-1.213 0.892,-2.241 2.092,-2.412l1.716,-0.245c0.404,-0.058 0.704,-0.404 0.704,-0.812v-6.445c0,-0.522 -0.482,-0.912 -0.992,-0.802l-7.385,1.582c-0.378,0.081 -0.649,0.415 -0.649,0.802v10.259c0,1.213 -0.892,2.241 -2.092,2.412l-0.87,0.124c-1.468,0.211 -2.781,-0.928 -2.781,-2.411c0,-1.213 0.892,-2.241 2.092,-2.412l1.716,-0.245c0.404,-0.058 0.704,-0.404 0.704,-0.812v-11.52c0,-0.387 0.27,-0.721 0.649,-0.802l9.846,-2.11c0.511,-0.11 0.993,0.28 0.993,0.802z" fill="#ffffff"></path></g></g>
</svg>